<svg width="33" height="33" viewBox="0 0 33 33" fill="none" xmlns="http://www.w3.org/2000/svg">
<path d="M16.5 16.5C18.688 16.5 20.7865 15.6308 22.3336 14.0836C23.8808 12.5365 24.75 10.438 24.75 8.25C24.75 6.06196 23.8808 3.96354 22.3336 2.41637C20.7865 0.869194 18.688 0 16.5 0C14.312 0 12.2135 0.869194 10.6664 2.41637C9.11919 3.96354 8.25 6.06196 8.25 8.25C8.25 10.438 9.11919 12.5365 10.6664 14.0836C12.2135 15.6308 14.312 16.5 16.5 16.5ZM22 8.25C22 9.70869 21.4205 11.1076 20.3891 12.1391C19.3576 13.1705 17.9587 13.75 16.5 13.75C15.0413 13.75 13.6424 13.1705 12.6109 12.1391C11.5795 11.1076 11 9.70869 11 8.25C11 6.79131 11.5795 5.39236 12.6109 4.36091C13.6424 3.32946 15.0413 2.75 16.5 2.75C17.9587 2.75 19.3576 3.32946 20.3891 4.36091C21.4205 5.39236 22 6.79131 22 8.25ZM33 30.25C33 33 30.25 33 30.25 33H2.75C2.75 33 0 33 0 30.25C0 27.5 2.75 19.25 16.5 19.25C30.25 19.25 33 27.5 33 30.25ZM30.25 30.239C30.2472 29.5625 29.8265 27.5275 27.962 25.663C26.169 23.87 22.7948 22 16.5 22C10.2025 22 6.831 23.87 5.038 25.663C3.1735 27.5275 2.7555 29.5625 2.75 30.239H30.25Z" fill="#666666"/>
</svg>
