<svg width="173" height="129" viewBox="0 0 173 129" fill="none" xmlns="http://www.w3.org/2000/svg">
<path d="M144.829 58.136L141.312 44.1753C142.263 43.9746 142.984 43.1146 142.984 42.1113V39.8466C142.984 34.9733 138.976 30.9886 134.075 30.9886H118.072V26.3446C118.072 23.9366 116.111 21.9873 113.689 21.9873H32.2064C29.7844 21.9873 27.8237 23.9366 27.8237 26.3446V64.6146C27.8237 65.79 28.7752 66.736 29.9574 66.736C31.1395 66.736 32.091 65.79 32.091 64.6146V26.3446C32.091 26.2586 32.1487 26.2013 32.2352 26.2013H113.747C113.834 26.2013 113.891 26.2586 113.891 26.3446V64.6146C113.891 65.79 114.843 66.736 116.025 66.736C117.207 66.736 118.159 65.79 118.159 64.6146V62.2066H143.186C146.271 62.2066 148.895 64.2133 149.789 66.994H143.186C142.004 66.994 141.052 67.94 141.052 69.1153V73.616C141.052 77.2566 144.022 80.238 147.713 80.238H150.106V89.526H144.57C142.753 84.28 137.736 80.5246 131.854 80.5246C125.972 80.5246 120.984 84.3086 119.139 89.526H118.13V73.616C118.13 72.4406 117.178 71.4946 115.996 71.4946C114.814 71.4946 113.862 72.4406 113.862 73.616V89.4973H69.805C67.9885 84.2513 62.9715 80.496 57.0895 80.496C51.2075 80.496 46.2194 84.28 44.4029 89.4973H32.2064C32.1199 89.4973 32.0622 89.44 32.0622 89.354V84.71H41.26C42.4422 84.71 43.3937 83.764 43.3937 82.5886C43.3937 81.4133 42.4422 80.4673 41.26 80.4673H20.8749C19.6927 80.4673 18.7412 81.4133 18.7412 82.5886C18.7412 83.764 19.6927 84.71 20.8749 84.71H27.7949V89.354C27.7949 91.762 29.7555 93.7113 32.1775 93.7113H43.6532C43.6532 93.7686 43.6532 93.7973 43.6532 93.8546C43.6532 101.222 49.6794 107.213 57.0895 107.213C64.4997 107.213 70.5259 101.222 70.5259 93.8546C70.5259 93.7973 70.5259 93.7686 70.5259 93.7113H118.36C118.36 93.7686 118.36 93.7973 118.36 93.8546C118.36 101.222 124.387 107.213 131.797 107.213C139.207 107.213 145.233 101.222 145.233 93.8546C145.233 93.7973 145.233 93.7686 145.233 93.7113H152.182C153.364 93.7113 154.316 92.7653 154.316 91.59V69.0866C154.316 63.554 150.192 58.9386 144.829 58.136ZM118.101 35.2026H134.075C136.641 35.2026 138.746 37.2953 138.746 39.8466V39.99H118.101V35.2026ZM118.101 57.9926V44.204H136.958L140.418 57.9926H118.101ZM57.0895 102.999C52.0149 102.999 47.8917 98.9 47.8917 93.8546C47.8917 88.8093 52.0149 84.71 57.0895 84.71C62.1642 84.71 66.2874 88.8093 66.2874 93.8546C66.2874 98.9 62.1642 102.999 57.0895 102.999ZM131.797 102.999C126.722 102.999 122.599 98.9 122.599 93.8546C122.599 88.8093 126.722 84.71 131.797 84.71C136.871 84.71 140.995 88.8093 140.995 93.8546C140.995 98.9 136.871 102.999 131.797 102.999ZM150.077 75.9953H147.684C146.358 75.9953 145.291 74.9346 145.291 73.616V71.2366H150.106L150.077 75.9953Z" fill="white"/>
<path d="M57.119 89.4973C54.697 89.4973 52.7363 91.4466 52.7363 93.8546C52.7363 96.2626 54.697 98.212 57.119 98.212C59.541 98.212 61.5017 96.2626 61.5017 93.8546C61.5017 91.4466 59.5122 89.4973 57.119 89.4973Z" fill="white"/>
<path d="M131.797 89.4973C129.375 89.4973 127.414 91.4466 127.414 93.8546C127.414 96.2626 129.375 98.212 131.797 98.212C134.219 98.212 136.179 96.2626 136.179 93.8546C136.179 91.4466 134.219 89.4973 131.797 89.4973Z" fill="white"/>
<path d="M106.914 80.496H75.2264C74.0443 80.496 73.0928 81.442 73.0928 82.6173C73.0928 83.7926 74.0443 84.7386 75.2264 84.7386H106.914C108.096 84.7386 109.048 83.7926 109.048 82.6173C109.048 81.442 108.096 80.496 106.914 80.496Z" fill="white"/>
<path d="M52.5632 71.4946H25.4022C24.2201 71.4946 23.2686 72.4406 23.2686 73.616C23.2686 74.7913 24.2201 75.7373 25.4022 75.7373H52.5632C53.7454 75.7373 54.6969 74.7913 54.6969 73.616C54.6969 72.4406 53.7454 71.4946 52.5632 71.4946Z" fill="white"/>
<path d="M92.5548 42.8567C91.7187 42.0253 90.3923 42.0253 89.5562 42.8567L70.6992 61.6333L60.867 51.858C60.0308 51.0267 58.7045 51.0267 57.8683 51.858C57.0322 52.6893 57.0322 54.008 57.8683 54.8393L69.1998 66.1053C69.6035 66.5067 70.1513 66.736 70.6992 66.736C71.247 66.736 71.7948 66.5353 72.1985 66.1053L92.5837 45.838C93.391 45.0067 93.391 43.688 92.5548 42.8567Z" fill="white"/>
</svg>
