<svg width="33" height="33" viewBox="0 0 33 33" fill="none" xmlns="http://www.w3.org/2000/svg">
<path fill-rule="evenodd" clip-rule="evenodd" d="M11.3438 20.625C11.3438 20.3515 11.4524 20.0892 11.6458 19.8958C11.8392 19.7024 12.1015 19.5938 12.375 19.5938H20.625C20.8985 19.5938 21.1608 19.7024 21.3542 19.8958C21.5476 20.0892 21.6562 20.3515 21.6562 20.625C21.6562 20.8985 21.5476 21.1608 21.3542 21.3542C21.1608 21.5476 20.8985 21.6562 20.625 21.6562H12.375C12.1015 21.6562 11.8392 21.5476 11.6458 21.3542C11.4524 21.1608 11.3438 20.8985 11.3438 20.625Z" fill="#666666"/>
<path d="M16.5 2.0625C17.8675 2.0625 19.179 2.60575 20.146 3.57273C21.113 4.53972 21.6562 5.85123 21.6562 7.21875V8.25H11.3438V7.21875C11.3438 5.85123 11.887 4.53972 12.854 3.57273C13.821 2.60575 15.1325 2.0625 16.5 2.0625ZM23.7188 8.25V7.21875C23.7188 5.30422 22.9582 3.4681 21.6044 2.11432C20.2506 0.760545 18.4145 0 16.5 0C14.5855 0 12.7494 0.760545 11.3956 2.11432C10.0418 3.4681 9.28125 5.30422 9.28125 7.21875V8.25H2.0625V28.875C2.0625 29.969 2.4971 31.0182 3.27068 31.7918C4.04427 32.5654 5.09348 33 6.1875 33H26.8125C27.9065 33 28.9557 32.5654 29.7293 31.7918C30.5029 31.0182 30.9375 29.969 30.9375 28.875V8.25H23.7188ZM4.125 10.3125H28.875V28.875C28.875 29.422 28.6577 29.9466 28.2709 30.3334C27.8841 30.7202 27.3595 30.9375 26.8125 30.9375H6.1875C5.64049 30.9375 5.11589 30.7202 4.72909 30.3334C4.3423 29.9466 4.125 29.422 4.125 28.875V10.3125Z" fill="#666666"/>
</svg>
