<svg width="173" height="129" viewBox="0 0 173 129" fill="none" xmlns="http://www.w3.org/2000/svg">
<path d="M114.657 56.2031V38.5166L123.263 29.889V59.4529H126.131V26.4379C126.131 26.2654 126.103 26.0641 126.045 25.8915C125.816 25.3451 125.3 25 124.726 25H55.9086C55.5357 25 55.1628 25.1438 54.9046 25.4314L43.4303 36.9348C43.1721 37.1937 43 37.5675 43 37.9414V92.5253C43 93.3305 43.6311 93.9632 44.4343 93.9632H113.223C114.026 93.9632 114.657 93.3305 114.657 92.5253V75.3276C116.464 77.9734 117.526 81.1656 117.526 84.6167C117.526 93.7332 110.125 101.124 101.06 101.124C100.257 101.124 99.6258 101.757 99.6258 102.562C99.6258 103.367 100.257 104 101.06 104H103.929C117.755 104 129 92.7266 129 78.8649C129 68.8569 123.119 60.2293 114.657 56.2031ZM112.649 36.5035H86.6024L95.2081 27.8759H121.255L112.649 36.5035ZM82.1274 36.9061C81.8693 37.1649 81.6971 37.5388 81.6971 37.9126V47.9782H75.96V38.5166L86.5737 27.8759H91.1348L82.1274 36.9061ZM56.511 27.8759H82.5577L73.952 36.5035H47.9053L56.511 27.8759ZM45.8973 91.0874V39.3793H73.1201V49.4448C73.1201 50.2501 73.7512 50.8828 74.5544 50.8828H83.1601C83.9633 50.8828 84.5944 50.2501 84.5944 49.4448V39.3793H111.789V55.024C109.293 54.19 106.654 53.7299 103.9 53.7299H101.749V46.5402C101.749 45.9938 101.462 45.5049 100.974 45.2748C100.486 45.016 99.9126 45.0735 99.4823 45.3899L79.431 59.7692C79.058 60.028 78.8286 60.4882 78.8286 60.9483C78.8286 61.4084 79.058 61.8398 79.431 62.1274L99.4823 76.5067C99.9126 76.8231 100.486 76.8518 100.974 76.6218C101.462 76.3629 101.749 75.874 101.749 75.3564V68.1955C105.564 68.368 109.063 69.8347 111.789 72.1929V91.1736H45.8973V91.0874ZM114.743 98.3058C118.243 94.7972 120.394 89.937 120.394 84.6167C120.394 73.9185 111.702 65.2333 101.06 65.2333H100.343C99.5397 65.2333 98.9086 65.866 98.9086 66.6713V72.5093L82.7585 60.9483L98.9086 49.3873V55.2253C98.9086 56.0306 99.5397 56.6633 100.343 56.6633H103.929C116.177 56.6633 126.131 66.6425 126.131 78.9225C126.131 87.2049 121.542 94.5096 114.743 98.3058Z" fill="white"/>
</svg>
