<svg width="33" height="33" viewBox="0 0 33 33" fill="none" xmlns="http://www.w3.org/2000/svg">
<path fill-rule="evenodd" clip-rule="evenodd" d="M4.9502 8.24998C4.9502 7.81237 5.12403 7.39268 5.43347 7.08325C5.7429 6.77381 6.16259 6.59998 6.6002 6.59998H26.4002C26.8378 6.59998 27.2575 6.77381 27.5669 7.08325C27.8764 7.39268 28.0502 7.81237 28.0502 8.24998C28.0502 8.68758 27.8764 9.10727 27.5669 9.4167C27.2575 9.72614 26.8378 9.89998 26.4002 9.89998H6.6002C6.16259 9.89998 5.7429 9.72614 5.43347 9.4167C5.12403 9.10727 4.9502 8.68758 4.9502 8.24998ZM4.9502 16.5C4.9502 16.0624 5.12403 15.6427 5.43347 15.3332C5.7429 15.0238 6.16259 14.85 6.6002 14.85H26.4002C26.8378 14.85 27.2575 15.0238 27.5669 15.3332C27.8764 15.6427 28.0502 16.0624 28.0502 16.5C28.0502 16.9376 27.8764 17.3573 27.5669 17.6667C27.2575 17.9761 26.8378 18.15 26.4002 18.15H6.6002C6.16259 18.15 5.7429 17.9761 5.43347 17.6667C5.12403 17.3573 4.9502 16.9376 4.9502 16.5ZM4.9502 24.75C4.9502 24.3124 5.12403 23.8927 5.43347 23.5832C5.7429 23.2738 6.16259 23.1 6.6002 23.1H26.4002C26.8378 23.1 27.2575 23.2738 27.5669 23.5832C27.8764 23.8927 28.0502 24.3124 28.0502 24.75C28.0502 25.1876 27.8764 25.6073 27.5669 25.9167C27.2575 26.2261 26.8378 26.4 26.4002 26.4H6.6002C6.16259 26.4 5.7429 26.2261 5.43347 25.9167C5.12403 25.6073 4.9502 25.1876 4.9502 24.75Z" fill="#666666"/>
</svg>
