<svg width="146" height="110" viewBox="0 0 146 110" fill="none" xmlns="http://www.w3.org/2000/svg">
<path d="M99.45 77.8067C98.647 77.2445 97.5763 77.4645 97.0166 78.2467C96.4813 79.0289 95.873 79.7623 95.216 80.4711C94.778 80.9356 94.1696 81.5223 93.5126 82.0845C92.7826 82.72 92.6853 83.82 93.318 84.5534C93.6586 84.9689 94.1453 85.1645 94.6563 85.1645C95.0456 85.1645 95.4593 85.0178 95.8 84.7489C96.5786 84.0889 97.26 83.4289 97.7953 82.8423C98.574 82.0111 99.2796 81.1311 99.9123 80.2023C100.448 79.4445 100.253 78.3445 99.45 77.8067Z" fill="white"/>
<path d="M91.8342 85.6778C91.4205 84.7978 90.3742 84.4312 89.4982 84.8223L89.4495 84.8467C88.5735 85.2378 88.1599 86.2645 88.5492 87.1689C88.8412 87.8289 89.4739 88.22 90.1552 88.22C90.3985 88.22 90.6419 88.1712 90.8609 88.0734C90.9095 88.0489 90.9339 88.0245 90.9825 88.0245C91.8585 87.6089 92.2479 86.5578 91.8342 85.6778Z" fill="white"/>
<path d="M112.59 14.6666H33.4826C30.6113 14.6666 28.251 17.0133 28.251 19.9222V69.1777C28.251 72.0622 30.587 74.4333 33.4826 74.4333H70.3233C71.8806 81.0822 75.409 85.7755 78.4993 88.7822C83.001 93.1822 88.1596 95.5288 90.155 95.5288C92.1503 95.5288 97.309 93.1822 101.811 88.7822C104.901 85.7755 108.429 81.0822 109.987 74.4333H112.566C115.437 74.4333 117.798 72.0866 117.798 69.1777V19.9222C117.798 17.0377 115.462 14.6666 112.59 14.6666ZM107.31 67.2222C107.31 76.4866 103.052 82.6222 99.499 86.1422C95.265 90.3222 90.9336 91.9355 90.155 91.9844C89.4006 91.9355 85.045 90.3222 80.811 86.1422C77.2583 82.6222 73 76.4866 73 67.2222V58.5689C79.0103 56.8088 84.6556 54.4133 90.155 51.2844C95.5326 54.34 101.421 56.8577 107.31 58.5689V67.2222ZM114.318 69.1777C114.318 70.1311 113.539 70.9133 112.59 70.9133H110.619C110.765 69.74 110.838 68.5177 110.838 67.2222V57.2488C110.838 56.4666 110.303 55.7577 109.549 55.5622C103.198 53.8266 96.798 51.1377 91.0553 47.7644C90.52 47.4466 89.8386 47.4466 89.279 47.7644C83.366 51.2355 77.3313 53.7777 70.7856 55.5622C70.0313 55.7822 69.496 56.4666 69.496 57.2488V67.2222C69.496 68.4933 69.569 69.74 69.715 70.9133H33.4826C32.5336 70.9133 31.755 70.1311 31.755 69.1777V39.2822H114.318V69.1777ZM114.318 35.7622H31.755V28.7222H114.318V35.7622ZM114.318 25.2266H31.755V19.9222C31.755 18.9688 32.5336 18.1866 33.4826 18.1866H112.59C113.539 18.1866 114.318 18.9688 114.318 19.9222V25.2266Z" fill="white"/>
<path d="M49.2505 51.5778C48.2041 51.5778 47.1578 51.7978 46.1845 52.1889C45.2355 51.7978 44.2135 51.5778 43.1185 51.5778C38.7871 51.5778 35.2588 55.1222 35.2588 59.4733C35.2588 63.8244 38.7871 67.3689 43.1185 67.3689C44.2135 67.3689 45.2355 67.1489 46.1845 66.7578C47.1578 67.1733 48.1798 67.3689 49.2505 67.3689C53.5818 67.3689 57.1101 63.8244 57.1101 59.4733C57.1101 55.1222 53.5818 51.5778 49.2505 51.5778ZM43.1185 63.8733C40.7095 63.8733 38.7385 61.8933 38.7385 59.4733C38.7385 57.0533 40.7095 55.0733 43.1185 55.0733C45.5275 55.0733 47.4985 57.0533 47.4985 59.4733C47.4985 61.9178 45.5275 63.8733 43.1185 63.8733ZM49.6641 63.8489C50.4915 62.6022 50.9781 61.0866 50.9781 59.4733C50.9781 57.86 50.4915 56.3444 49.6641 55.0978C51.8785 55.3178 53.6061 57.2 53.6061 59.4733C53.6061 61.7466 51.8785 63.6289 49.6641 63.8489Z" fill="white"/>
<path d="M45.9897 43.6578H36.9864C36.013 43.6578 35.2344 44.4401 35.2344 45.4178C35.2344 46.3956 36.013 47.1778 36.9864 47.1778H45.9897C46.963 47.1778 47.7417 46.3956 47.7417 45.4178C47.7417 44.4645 46.963 43.6578 45.9897 43.6578Z" fill="white"/>
<path d="M51.1727 43.6578H51.0997C50.1263 43.6578 49.3477 44.4401 49.3477 45.4178C49.3477 46.3956 50.1263 47.1778 51.0997 47.1778H51.1727C52.146 47.1778 52.9247 46.3956 52.9247 45.4178C52.9247 44.4645 52.1217 43.6578 51.1727 43.6578Z" fill="white"/>
<path d="M99.7666 63.1889C99.0853 62.5044 97.966 62.5044 97.2846 63.1889L87.9406 72.5755L83.0496 67.6622C82.3683 66.9778 81.249 66.9778 80.5676 67.6622C79.8863 68.3466 79.8863 69.4711 80.5676 70.1555L86.6996 76.3155C87.0403 76.6578 87.4783 76.8289 87.9406 76.8289C88.403 76.8289 88.841 76.6578 89.1816 76.3155L99.7666 65.6822C100.448 64.9733 100.448 63.8733 99.7666 63.1889Z" fill="white"/>
</svg>
